<svg width="190" height="40" viewBox="0 0 190 40" fill="none" xmlns="http://www.w3.org/2000/svg">
<path fill-rule="evenodd" clip-rule="evenodd" d="M27.5737 17.7931L35.0327 13.4865C35.3196 13.3208 35.418 12.9538 35.2523 12.6669L33.9773 10.4584C33.8116 10.1714 33.4446 10.0731 33.1577 10.2388L25.7518 14.5147C24.3185 12.9677 22.2724 12 20.001 12C17.7297 12 15.6836 12.9678 14.2502 14.5147L6.84453 10.2389C6.55756 10.0732 6.19061 10.1716 6.02493 10.4585L4.74992 12.667C4.58423 12.954 4.68256 13.3209 4.96953 13.4866L12.4284 17.7931C12.2477 18.4562 12.1512 19.1543 12.1512 19.875C12.1512 23.5759 14.696 26.6805 18.1259 27.5239V36.2758C18.1259 36.6072 18.3945 36.8758 18.7259 36.8758H21.2759C21.6073 36.8758 21.8759 36.6072 21.8759 36.2758V27.5239C25.306 26.6807 27.8509 23.576 27.8509 19.875C27.8509 19.1543 27.7544 18.4562 27.5737 17.7931ZM15.9134 19.875C15.9134 17.5922 17.7548 15.7622 20.001 15.7622C22.2473 15.7622 24.0887 17.5922 24.0887 19.875C24.0887 22.1577 22.2473 23.9878 20.001 23.9878C17.7548 23.9878 15.9134 22.1577 15.9134 19.875Z" fill="#476CEF"/>
<path d="M18.1259 3.72537C18.1259 3.394 18.3945 3.12537 18.7259 3.12537H21.2758C21.6072 3.12537 21.8758 3.394 21.8758 3.72537V8.77552C21.8758 9.10689 21.6072 9.37552 21.2758 9.37552H18.7259C18.3945 9.37552 18.1259 9.10689 18.1259 8.77552V3.72537Z" fill="#94ABFF"/>
<path d="M35.0317 26.5148C35.3186 26.6805 35.417 27.0475 35.2513 27.3344L33.9763 29.5429C33.8106 29.8299 33.4436 29.9282 33.1567 29.7625L28.7832 27.2374C28.4963 27.0717 28.3979 26.7048 28.5636 26.4178L29.8386 24.2094C30.0043 23.9224 30.3713 23.8241 30.6582 23.9897L35.0317 26.5148Z" fill="#94ABFF"/>
<path d="M6.84542 29.761C6.55844 29.9267 6.19149 29.8284 6.02581 29.5414L4.7508 27.333C4.58512 27.046 4.68345 26.679 4.97042 26.5134L9.34385 23.9883C9.63082 23.8226 9.99777 23.9209 10.1635 24.2079L11.4385 26.4163C11.6041 26.7033 11.5058 27.0703 11.2188 27.236L6.84542 29.761Z" fill="#94ABFF"/>
<path d="M50.8991 29.7852C50.7886 29.7852 50.6991 29.6956 50.6991 29.5852V13.7726C50.6991 13.6622 50.6096 13.5726 50.4991 13.5726H45.2C45.0895 13.5726 45 13.4831 45 13.3726V10.2C45 10.0895 45.0895 10 45.2 10H60.3C60.4104 10 60.5 10.0895 60.5 10.2V13.3726C60.5 13.4831 60.4104 13.5726 60.3 13.5726H55.1632C55.0528 13.5726 54.9632 13.6622 54.9632 13.7726V29.5852C54.9632 29.6956 54.8737 29.7852 54.7632 29.7852H50.8991Z" fill="#FBFBFD"/>
<path d="M66.9054 30.1309C65.5416 30.1309 64.3124 29.8332 63.2175 29.2377C62.1227 28.6423 61.2583 27.7876 60.6245 26.6735C59.9906 25.5595 59.6737 24.2149 59.6737 22.6399C59.6737 21.0841 59.9906 19.7491 60.6245 18.6351C61.2775 17.521 62.1227 16.6663 63.1599 16.0708C64.1971 15.4562 65.2823 15.1489 66.4156 15.1489C67.7793 15.1489 68.903 15.4562 69.7866 16.0708C70.6893 16.6663 71.3616 17.4826 71.8034 18.5198C72.2644 19.5378 72.4948 20.6999 72.4948 22.006C72.4948 22.371 72.4756 22.7359 72.4372 23.1009C72.4091 23.3541 72.381 23.5609 72.3528 23.7214C72.3366 23.8137 72.2553 23.8788 72.1615 23.8788H64.0054C63.8803 23.8788 63.7857 23.9925 63.8137 24.1144C64.0252 25.0331 64.4411 25.7229 65.0615 26.1837C65.7337 26.6639 66.5404 26.904 67.4816 26.904C68.4407 26.904 69.4083 26.6227 70.3845 26.0601C70.4833 26.0032 70.6104 26.0367 70.6654 26.1365L71.8887 28.3584C71.9384 28.4486 71.9115 28.562 71.8254 28.6184C71.1343 29.0702 70.3683 29.4303 69.5273 29.6987C68.6245 29.9868 67.7505 30.1309 66.9054 30.1309ZM63.7809 20.8513C63.7548 20.9724 63.8492 21.0841 63.973 21.0841H68.6934C68.8039 21.0841 68.8939 20.9944 68.8891 20.884C68.8589 20.1869 68.6683 19.6101 68.3172 19.1537C67.9522 18.6351 67.3472 18.3758 66.502 18.3758C65.849 18.3758 65.2631 18.6063 64.7445 19.0672C64.2715 19.4702 63.9503 20.0649 63.7809 20.8513Z" fill="#FBFBFD"/>
<path d="M75.6215 29.7852C75.511 29.7852 75.4215 29.6956 75.4215 29.5852V15.6946C75.4215 15.5842 75.511 15.4946 75.6215 15.4946H78.7005C78.8022 15.4946 78.8876 15.5708 78.8992 15.6718L79.1591 17.9326C79.1636 17.9717 79.1967 18.0012 79.236 18.0012C79.2645 18.0012 79.2907 17.9855 79.3043 17.9605C79.8186 17.0207 80.4354 16.3236 81.155 15.8692C81.8849 15.389 82.6148 15.1489 83.3447 15.1489C83.748 15.1489 84.0842 15.1777 84.3531 15.2353C84.5604 15.2649 84.7449 15.3117 84.9066 15.3756C84.9897 15.4084 85.0331 15.4976 85.0165 15.5854L84.3946 18.8763C84.3724 18.9935 84.2533 19.065 84.138 19.0346C83.96 18.9877 83.782 18.9506 83.604 18.9232C83.3735 18.8848 83.1046 18.8656 82.7972 18.8656C82.2594 18.8656 81.6928 19.0672 81.0974 19.4706C80.5283 19.85 80.0529 20.5103 79.6712 21.4515C79.6617 21.4751 79.6568 21.5005 79.6568 21.5259V29.5852C79.6568 29.6956 79.5672 29.7852 79.4568 29.7852H75.6215Z" fill="#FBFBFD"/>
<path d="M87.1011 29.7852C86.9906 29.7852 86.9011 29.6956 86.9011 29.5852V15.6946C86.9011 15.5842 86.9906 15.4946 87.1011 15.4946H90.1801C90.2818 15.4946 90.3672 15.5708 90.3788 15.6718L90.6387 17.9326C90.6432 17.9717 90.6763 18.0012 90.7156 18.0012C90.7441 18.0012 90.7703 17.9855 90.784 17.9605C91.2982 17.0207 91.915 16.3236 92.6346 15.8692C93.3645 15.389 94.0944 15.1489 94.8243 15.1489C95.2276 15.1489 95.5638 15.1777 95.8327 15.2353C96.04 15.2649 96.2245 15.3117 96.3862 15.3756C96.4693 15.4084 96.5127 15.4976 96.4961 15.5854L95.8742 18.8763C95.8521 18.9935 95.7329 19.065 95.6176 19.0346C95.4396 18.9877 95.2616 18.9506 95.0836 18.9232C94.8531 18.8848 94.5842 18.8656 94.2769 18.8656C93.739 18.8656 93.1724 19.0672 92.577 19.4706C92.0079 19.85 91.5326 20.5103 91.1508 21.4515C91.1413 21.4751 91.1364 21.5005 91.1364 21.5259V29.5852C91.1364 29.6956 91.0468 29.7852 90.9364 29.7852H87.1011Z" fill="#FBFBFD"/>
<path d="M101.166 30.1309C99.8601 30.1309 98.8229 29.7179 98.0546 28.892C97.2862 28.0469 96.9021 27.0192 96.9021 25.8092C96.9021 24.311 97.5359 23.1393 98.8036 22.2941C100.043 21.4682 102.024 20.9083 104.749 20.6143C104.856 20.6028 104.936 20.5096 104.924 20.403C104.861 19.8591 104.674 19.4235 104.364 19.0961C104.038 18.7119 103.481 18.5198 102.693 18.5198C102.098 18.5198 101.493 18.6351 100.878 18.8656C100.317 19.0761 99.7229 19.3589 99.0972 19.7138C98.9992 19.7693 98.8743 19.7347 98.8203 19.6359L97.4828 17.1881C97.4319 17.0948 97.4627 16.9777 97.554 16.9231C98.4094 16.4111 99.3157 15.9926 100.273 15.6675C101.31 15.3217 102.386 15.1489 103.5 15.1489C105.325 15.1489 106.727 15.6771 107.706 16.7335C108.686 17.7899 109.176 19.413 109.176 21.6027V29.5852C109.176 29.6956 109.086 29.7852 108.976 29.7852H105.883C105.787 29.7852 105.705 29.7175 105.687 29.6236L105.445 28.3928C105.437 28.3481 105.397 28.3158 105.352 28.3158C105.328 28.3158 105.305 28.3246 105.288 28.3403C104.7 28.8671 104.066 29.3006 103.385 29.6411C102.712 29.9676 101.973 30.1309 101.166 30.1309ZM102.607 26.8464C103.087 26.8464 103.5 26.7407 103.846 26.5294C104.191 26.3114 104.536 26.0331 104.882 25.6946C104.92 25.6575 104.941 25.6065 104.941 25.5534V23.357C104.941 23.2364 104.834 23.1432 104.715 23.16C103.338 23.3534 102.376 23.6506 101.829 24.0517C101.253 24.455 100.965 24.9352 100.965 25.4922C100.965 25.9532 101.109 26.299 101.397 26.5294C101.704 26.7407 102.107 26.8464 102.607 26.8464Z" fill="#FBFBFD"/>
<path d="M116.474 30.1309C115.533 30.1309 114.563 29.9484 113.564 29.5835C112.65 29.2428 111.844 28.8016 111.147 28.26C111.064 28.1952 111.048 28.076 111.11 27.9902L112.784 25.6567C112.849 25.5662 112.975 25.5463 113.065 25.611C113.659 26.0346 114.229 26.3696 114.774 26.6159C115.389 26.8656 115.994 26.9904 116.589 26.9904C117.223 26.9904 117.684 26.8848 117.972 26.6735C118.261 26.443 118.405 26.1453 118.405 25.7803C118.405 25.4538 118.261 25.1849 117.972 24.9736C117.703 24.7623 117.348 24.5703 116.906 24.3974C116.465 24.2053 115.994 24.0132 115.495 23.8212C114.918 23.5907 114.342 23.3026 113.766 22.9568C113.209 22.6111 112.738 22.1693 112.354 21.6315C111.97 21.0745 111.778 20.4022 111.778 19.6147C111.778 18.2893 112.277 17.2137 113.276 16.3878C114.294 15.5618 115.619 15.1489 117.252 15.1489C118.347 15.1489 119.307 15.3409 120.133 15.7251C120.905 16.0585 121.573 16.432 122.137 16.8455C122.225 16.9101 122.242 17.0342 122.176 17.1216L120.514 19.3375C120.447 19.4266 120.321 19.4437 120.231 19.3779C119.785 19.0519 119.34 18.7947 118.894 18.6063C118.395 18.395 117.896 18.2893 117.396 18.2893C116.301 18.2893 115.754 18.6639 115.754 19.413C115.754 19.874 116.023 20.2293 116.561 20.479C117.118 20.7095 117.761 20.9592 118.491 21.2281C119.106 21.4394 119.701 21.7179 120.277 22.0637C120.873 22.3902 121.363 22.832 121.747 23.389C122.15 23.9268 122.352 24.6375 122.352 25.521C122.352 26.808 121.852 27.9028 120.854 28.8056C119.855 29.6891 118.395 30.1309 116.474 30.1309Z" fill="#FBFBFD"/>
<path d="M130.788 30.1309C129.021 30.1309 127.753 29.6219 126.985 28.6039C126.236 27.5859 125.861 26.2509 125.861 24.5991V19.0079C125.861 18.8975 125.772 18.8079 125.661 18.8079H124.102C123.991 18.8079 123.902 18.7184 123.902 18.6079V15.8523C123.902 15.748 123.982 15.6611 124.086 15.6529L125.93 15.5074C126.024 15.4999 126.1 15.4274 126.112 15.3336L126.559 11.8659C126.572 11.7662 126.657 11.6915 126.757 11.6915H129.896C130.007 11.6915 130.096 11.781 130.096 11.8915V15.2946C130.096 15.4051 130.186 15.4946 130.296 15.4946H133.325C133.435 15.4946 133.525 15.5842 133.525 15.6946V18.6079C133.525 18.7184 133.435 18.8079 133.325 18.8079H130.296C130.186 18.8079 130.096 18.8975 130.096 19.0079V24.5414C130.096 25.3482 130.26 25.934 130.586 26.299C130.932 26.6447 131.383 26.8176 131.94 26.8176C132.171 26.8176 132.401 26.7888 132.632 26.7311C132.79 26.6946 132.937 26.6543 133.072 26.61C133.189 26.5715 133.318 26.64 133.344 26.7611L133.919 29.4343C133.941 29.5352 133.882 29.6362 133.783 29.6653C133.452 29.7629 133.058 29.8605 132.603 29.958C132.084 30.0733 131.479 30.1309 130.788 30.1309Z" fill="#FBFBFD"/>
<path d="M136.514 29.7852C136.404 29.7852 136.314 29.6956 136.314 29.5852V15.6946C136.314 15.5842 136.404 15.4946 136.514 15.4946H139.593C139.695 15.4946 139.78 15.5708 139.792 15.6718L140.052 17.9326C140.056 17.9717 140.09 18.0012 140.129 18.0012C140.157 18.0012 140.184 17.9855 140.197 17.9605C140.711 17.0207 141.328 16.3236 142.048 15.8692C142.778 15.389 143.508 15.1489 144.238 15.1489C144.641 15.1489 144.977 15.1777 145.246 15.2353C145.453 15.2649 145.638 15.3117 145.799 15.3756C145.883 15.4084 145.926 15.4976 145.909 15.5854L145.287 18.8763C145.265 18.9935 145.146 19.065 145.031 19.0346C144.853 18.9877 144.675 18.9506 144.497 18.9232C144.266 18.8848 143.997 18.8656 143.69 18.8656C143.152 18.8656 142.586 19.0672 141.99 19.4706C141.421 19.85 140.946 20.5103 140.564 21.4515C140.555 21.4751 140.55 21.5005 140.55 21.5259V29.5852C140.55 29.6956 140.46 29.7852 140.35 29.7852H136.514Z" fill="#FBFBFD"/>
<path d="M152.087 30.1309C150.531 30.1309 149.398 29.6219 148.687 28.6039C147.996 27.5667 147.65 26.1549 147.65 24.3686V15.6946C147.65 15.5842 147.739 15.4946 147.85 15.4946H151.685C151.796 15.4946 151.885 15.5842 151.885 15.6946V23.8212C151.885 24.8392 152.029 25.5499 152.317 25.9532C152.605 26.3374 153.057 26.5294 153.671 26.5294C154.209 26.5294 154.661 26.4046 155.026 26.1549C155.379 25.9133 155.759 25.5277 156.166 24.9983C156.193 24.9637 156.207 24.9212 156.207 24.8775V15.6946C156.207 15.5842 156.296 15.4946 156.407 15.4946H160.242C160.353 15.4946 160.442 15.5842 160.442 15.6946V29.5852C160.442 29.6956 160.353 29.7852 160.242 29.7852H157.155C157.057 29.7852 156.973 29.7137 156.958 29.6166L156.677 27.8523C156.672 27.8205 156.644 27.7972 156.612 27.7972C156.593 27.7972 156.574 27.8058 156.562 27.8206C155.972 28.5203 155.325 29.0791 154.622 29.497C153.912 29.9196 153.066 30.1309 152.087 30.1309Z" fill="#FBFBFD"/>
<path d="M170.393 30.1309C169.067 30.1309 167.867 29.8428 166.791 29.2666C165.735 28.6711 164.89 27.8164 164.256 26.7023C163.641 25.5691 163.334 24.2149 163.334 22.6399C163.334 21.0456 163.679 19.6915 164.371 18.5774C165.062 17.4634 165.975 16.6183 167.108 16.042C168.241 15.4466 169.461 15.1489 170.767 15.1489C171.651 15.1489 172.429 15.2929 173.101 15.581C173.73 15.8432 174.296 16.169 174.798 16.5583C174.881 16.6232 174.896 16.7427 174.834 16.8284L173.082 19.2405C173.014 19.3339 172.882 19.3502 172.79 19.28C172.178 18.8116 171.59 18.5774 171.026 18.5774C170.008 18.5774 169.192 18.9424 168.577 19.6723C167.982 20.4022 167.684 21.3914 167.684 22.6399C167.684 23.8692 167.982 24.8584 168.577 25.6075C169.192 26.3374 169.96 26.7023 170.882 26.7023C171.343 26.7023 171.795 26.6063 172.237 26.4142C172.607 26.2372 172.95 26.0332 173.266 25.8022C173.363 25.7312 173.502 25.7561 173.564 25.8591L175.03 28.2867C175.081 28.37 175.064 28.4778 174.989 28.54C174.314 29.0981 173.589 29.5036 172.813 29.7563C171.987 30.006 171.18 30.1309 170.393 30.1309Z" fill="#FBFBFD"/>
<path d="M183.34 30.1309C181.573 30.1309 180.305 29.6219 179.537 28.6039C178.788 27.5859 178.413 26.2509 178.413 24.5991V19.0079C178.413 18.8975 178.324 18.8079 178.213 18.8079H176.654C176.544 18.8079 176.454 18.7184 176.454 18.6079V15.8523C176.454 15.748 176.534 15.6611 176.638 15.6529L178.482 15.5074C178.576 15.4999 178.652 15.4274 178.665 15.3336L179.111 11.8659C179.124 11.7662 179.209 11.6915 179.309 11.6915H182.449C182.559 11.6915 182.649 11.781 182.649 11.8915V15.2946C182.649 15.4051 182.738 15.4946 182.849 15.4946H185.877C185.988 15.4946 186.077 15.5842 186.077 15.6946V18.6079C186.077 18.7184 185.988 18.8079 185.877 18.8079H182.849C182.738 18.8079 182.649 18.8975 182.649 19.0079V24.5414C182.649 25.3482 182.812 25.934 183.138 26.299C183.484 26.6447 183.936 26.8176 184.493 26.8176C184.723 26.8176 184.954 26.7888 185.184 26.7311C185.342 26.6946 185.489 26.6543 185.624 26.61C185.742 26.5715 185.87 26.64 185.896 26.7611L186.471 29.4343C186.493 29.5352 186.434 29.6362 186.335 29.6653C186.004 29.7629 185.611 29.8605 185.155 29.958C184.637 30.0733 184.032 30.1309 183.34 30.1309Z" fill="#FBFBFD"/>
</svg>
