<svg width="64" height="64" viewBox="0 0 64 64" fill="none" xmlns="http://www.w3.org/2000/svg">
<circle cx="32" cy="32" r="32" fill="#E0E7FF"/>
<path fill-rule="evenodd" clip-rule="evenodd" d="M33.4517 51.5419C34.9149 51.8407 35.6466 51.9901 36.22 51.5219C36.7934 51.0538 36.7934 50.248 36.7934 48.6366L36.7934 30.3062C36.7934 28.8355 36.7934 28.1001 36.3365 27.6432C35.8796 27.1862 35.1442 27.1862 33.6734 27.1862L15.0297 27.1862C13.3969 27.1862 12.5805 27.1862 12.1121 27.7695C11.6438 28.3528 11.8072 29.0915 12.1339 30.5689C13.2264 35.5082 15.6937 40.2046 19.5359 44.0468C23.4915 48.0024 28.3524 50.5007 33.4517 51.5419Z" fill="#476CEF"/>
<path fill-rule="evenodd" clip-rule="evenodd" d="M47.9052 37.5281C47.9052 39.1395 47.9052 39.9453 47.3318 40.4134C46.7584 40.8816 46.0268 40.7322 44.5635 40.4334C39.4643 39.3922 34.6033 36.8939 30.6478 32.9383C26.8055 29.096 24.3382 24.3995 23.2457 19.4601C22.919 17.9827 22.7556 17.244 23.2239 16.6607C23.6923 16.0775 24.5087 16.0775 26.1415 16.0775L44.7852 16.0775C46.256 16.0775 46.9914 16.0775 47.4483 16.5344C47.9052 16.9913 47.9052 17.7267 47.9052 19.1975L47.9052 37.5281Z" fill="#94ABFF"/>
<path fill-rule="evenodd" clip-rule="evenodd" d="M36.7918 37.5696L36.7918 30.3063C36.7918 28.8355 36.7918 28.1001 36.3349 27.6432C35.878 27.1863 35.1426 27.1863 33.6718 27.1863L26.2366 27.1863C27.4188 29.2431 28.8888 31.1796 30.6466 32.9374C32.5162 34.807 34.5881 36.3511 36.7918 37.5696Z" fill="#234CDA"/>
</svg>
