<svg width="24" height="24" viewBox="0 0 24 24" fill="white" xmlns="http://www.w3.org/2000/svg">
<g clip-path="url(#clip0_1173_19052)">
<path d="M18.2378 6.2467C17.0905 5.71816 15.8602 5.32876 14.5739 5.10573C14.5505 5.10143 14.5271 5.11219 14.515 5.1337C14.3568 5.41625 14.1815 5.78486 14.0588 6.07458C12.6753 5.86662 11.2989 5.86662 9.94374 6.07458C9.82099 5.77842 9.63936 5.41625 9.48043 5.1337C9.46836 5.1129 9.44496 5.10215 9.42154 5.10573C8.13593 5.32805 6.90567 5.71745 5.7577 6.2467C5.74776 6.251 5.73924 6.25818 5.73359 6.2675C3.40004 9.76786 2.76079 13.1822 3.07439 16.5542C3.0758 16.5707 3.08503 16.5864 3.0978 16.5965C4.63741 17.7317 6.12878 18.4209 7.59246 18.8777C7.61588 18.8849 7.6407 18.8763 7.65561 18.8569C8.00184 18.3822 8.31048 17.8816 8.57511 17.3552C8.59072 17.3244 8.57582 17.2878 8.5439 17.2756C8.05435 17.0891 7.5882 16.8618 7.1398 16.6036C7.10433 16.5829 7.10149 16.5319 7.13412 16.5075C7.22848 16.4365 7.32286 16.3627 7.41297 16.2881C7.42927 16.2745 7.45198 16.2716 7.47115 16.2802C10.417 17.6306 13.6062 17.6306 16.5172 16.2802C16.5364 16.2709 16.5591 16.2738 16.5761 16.2874C16.6662 16.362 16.7606 16.4365 16.8557 16.5075C16.8883 16.5319 16.8862 16.5829 16.8507 16.6036C16.4023 16.8668 15.9361 17.0891 15.4459 17.2749C15.414 17.2871 15.3998 17.3244 15.4154 17.3552C15.6857 17.8809 15.9943 18.3814 16.3342 18.8562C16.3484 18.8763 16.3739 18.8849 16.3973 18.8777C17.8681 18.4209 19.3595 17.7317 20.8991 16.5965C20.9126 16.5864 20.9211 16.5714 20.9225 16.5549C21.2978 12.6565 20.2939 9.27017 18.2612 6.26821C18.2562 6.25818 18.2477 6.251 18.2378 6.2467ZM9.01502 14.501C8.12812 14.501 7.39735 13.6835 7.39735 12.6794C7.39735 11.6754 8.11395 10.8579 9.01502 10.8579C9.92315 10.8579 10.6469 11.6826 10.6327 12.6794C10.6327 13.6835 9.91606 14.501 9.01502 14.501ZM14.9961 14.501C14.1092 14.501 13.3784 13.6835 13.3784 12.6794C13.3784 11.6754 14.095 10.8579 14.9961 10.8579C15.9042 10.8579 16.6279 11.6826 16.6137 12.6794C16.6137 13.6835 15.9042 14.501 14.9961 14.501Z" fill="#fffff"/>
</g>
<defs>
<clipPath id="clip0_1173_19052">
<rect width="18" height="14" fill="white" transform="translate(3 5)"/>
</clipPath>
</defs>
</svg>
