<svg width="24" height="24" viewBox="0 0 24 24" fill="white" xmlns="http://www.w3.org/2000/svg">
<path d="M8.48098 18.3353C8.48098 18.4212 8.38225 18.4899 8.25777 18.4899C8.11613 18.5027 8.0174 18.4341 8.0174 18.3353C8.0174 18.2495 8.11613 18.1808 8.24061 18.1808C8.36938 18.1679 8.48098 18.2366 8.48098 18.3353ZM7.14606 18.1422C7.11601 18.228 7.20186 18.3268 7.33063 18.3525C7.44223 18.3954 7.571 18.3525 7.59675 18.2667C7.62251 18.1808 7.54095 18.0821 7.41218 18.0435C7.30058 18.0134 7.17611 18.0563 7.14606 18.1422ZM9.04327 18.0692C8.9188 18.0993 8.83295 18.1808 8.84583 18.2795C8.8587 18.3654 8.9703 18.4212 9.09907 18.3911C9.22355 18.3611 9.3094 18.2795 9.29652 18.1937C9.28364 18.1121 9.16775 18.0563 9.04327 18.0692ZM11.8676 1.62097C5.91416 1.62097 1.35999 6.14081 1.35999 12.0943C1.35999 16.8545 4.35604 20.9279 8.6355 22.3616C9.18492 22.4603 9.37808 22.1212 9.37808 21.8422C9.37808 21.5761 9.3652 20.1081 9.3652 19.2067C9.3652 19.2067 6.36056 19.8505 5.72959 17.9276C5.72959 17.9276 5.24026 16.6785 4.53632 16.3566C4.53632 16.3566 3.55337 15.6827 4.60499 15.6956C4.60499 15.6956 5.67379 15.7814 6.26184 16.803C7.20186 18.4598 8.77715 17.9834 9.39095 17.7001C9.48968 17.0133 9.76868 16.5369 10.0777 16.2536C7.67831 15.9874 5.25743 15.6398 5.25743 11.5105C5.25743 10.3301 5.58365 9.73779 6.27042 8.98233C6.15882 8.70333 5.79397 7.55298 6.38202 6.06784C7.27912 5.78883 9.34374 7.22677 9.34374 7.22677C10.2022 6.9864 11.1251 6.86192 12.0393 6.86192C12.9536 6.86192 13.8764 6.9864 14.7349 7.22677C14.7349 7.22677 16.7995 5.78454 17.6966 6.06784C18.2847 7.55728 17.9198 8.70333 17.8082 8.98233C18.495 9.74208 18.9157 10.3344 18.9157 11.5105C18.9157 15.6526 16.3875 15.9831 13.988 16.2536C14.3829 16.5927 14.7177 17.2365 14.7177 18.2452C14.7177 19.6917 14.7049 21.4816 14.7049 21.8336C14.7049 22.1126 14.9023 22.4517 15.4474 22.353C19.7398 20.9279 22.65 16.8545 22.65 12.0943C22.65 6.14081 17.8211 1.62097 11.8676 1.62097ZM5.53214 16.4253C5.47634 16.4682 5.48922 16.5669 5.56219 16.6485C5.63086 16.7171 5.72959 16.7472 5.78539 16.6914C5.84119 16.6485 5.82831 16.5497 5.75534 16.4682C5.68666 16.3995 5.58794 16.3694 5.53214 16.4253ZM5.06857 16.0776C5.03852 16.1334 5.08144 16.202 5.16729 16.245C5.23597 16.2879 5.32181 16.275 5.35186 16.2149C5.38191 16.1591 5.33898 16.0904 5.25314 16.0475C5.16729 16.0218 5.09861 16.0346 5.06857 16.0776ZM6.45928 17.6056C6.39061 17.6614 6.41636 17.7902 6.51508 17.8718C6.61381 17.9705 6.73829 17.9834 6.79409 17.9147C6.84989 17.8589 6.82413 17.7301 6.73829 17.6486C6.64386 17.5498 6.51509 17.537 6.45928 17.6056ZM5.96996 16.9747C5.90128 17.0176 5.90128 17.1292 5.96996 17.2279C6.03864 17.3266 6.15453 17.3696 6.21033 17.3266C6.27901 17.2708 6.27901 17.1592 6.21033 17.0605C6.15024 16.9618 6.03864 16.9189 5.96996 16.9747Z"  fill="#fffff"/>
</svg>
